<svg width="101" height="140" viewBox="0 0 101 140" fill="none" xmlns="http://www.w3.org/2000/svg">
<path d="M90.2087 99.7375H92.608L97.197 110.499V99.7375H100.039V118.606H97.756L93.1438 107.331V118.606H90.2087V99.7375Z" fill="#FD5734"/>
<path d="M81.4546 118.862C79.4979 118.862 78.1003 118.342 77.2617 117.301C76.4231 116.245 76.0038 114.708 76.0038 112.689V105.608C76.0038 103.604 76.4231 102.09 77.2617 101.065C78.1003 100.04 79.4979 99.5278 81.4546 99.5278C83.3958 99.5278 84.7857 100.04 85.6242 101.065C86.4628 102.09 86.8821 103.604 86.8821 105.608V112.689C86.8821 114.692 86.4551 116.222 85.6009 117.278C84.7624 118.334 83.3802 118.862 81.4546 118.862ZM81.4546 116.323C82.2155 116.323 82.728 116.082 82.992 115.601C83.256 115.119 83.388 114.42 83.388 113.504V104.816C83.388 103.899 83.256 103.208 82.992 102.742C82.7435 102.277 82.2311 102.044 81.4546 102.044C80.6781 102.044 80.1579 102.284 79.8939 102.766C79.6299 103.232 79.4979 103.915 79.4979 104.816V113.504C79.4979 114.42 79.6299 115.119 79.8939 115.601C80.1579 116.082 80.6781 116.323 81.4546 116.323Z" fill="#FD5734"/>
<path d="M69.2084 99.7375H72.6093V118.606H69.2084V99.7375Z" fill="#FD5734"/>
<path d="M60.2391 102.277H57.2341V99.7375H66.6216V102.277H63.6866V118.606H60.2391V102.277Z" fill="#FD5734"/>
<path d="M51.254 99.7375H54.655V118.606H51.254V99.7375Z" fill="#FD5734"/>
<path d="M42.2847 102.277H39.2798V99.7375H48.6673V102.277H45.7322V118.606H42.2847V102.277Z" fill="#FD5734"/>
<path d="M26.655 99.7375H31.1974C33.1851 99.7375 34.6682 100.118 35.6465 100.879C36.6249 101.624 37.1141 102.913 37.1141 104.746C37.1141 105.941 36.9355 106.92 36.5783 107.681C36.2367 108.426 35.6388 108.97 34.7847 109.311L37.4169 118.606H33.9694L31.7098 109.964H30.0793V118.606H26.655V99.7375ZM31.1741 107.821C32.1524 107.821 32.8435 107.595 33.2473 107.145C33.6665 106.695 33.8762 105.957 33.8762 104.932C33.8762 103.938 33.6898 103.216 33.3171 102.766C32.96 102.315 32.3077 102.09 31.3604 102.09H30.0793V107.821H31.1741Z" fill="#FD5734"/>
<path d="M17.901 118.862C15.9443 118.862 14.5467 118.342 13.7081 117.301C12.8695 116.245 12.4502 114.708 12.4502 112.689V105.608C12.4502 103.604 12.8695 102.09 13.7081 101.065C14.5467 100.04 15.9443 99.5278 17.901 99.5278C19.8422 99.5278 21.2321 100.04 22.0706 101.065C22.9092 102.09 23.3285 103.604 23.3285 105.608V112.689C23.3285 114.692 22.9015 116.222 22.0474 117.278C21.2088 118.334 19.8267 118.862 17.901 118.862ZM17.901 116.323C18.6619 116.323 19.1744 116.082 19.4384 115.601C19.7024 115.119 19.8344 114.42 19.8344 113.504V104.816C19.8344 103.899 19.7024 103.208 19.4384 102.742C19.1899 102.277 18.6775 102.044 17.901 102.044C17.1245 102.044 16.6043 102.284 16.3403 102.766C16.0763 103.232 15.9443 103.915 15.9443 104.816V113.504C15.9443 114.42 16.0763 115.119 16.3403 115.601C16.6043 116.082 17.1245 116.323 17.901 116.323Z" fill="#FD5734"/>
<path d="M5.21787 118.862C3.50964 118.862 2.22847 118.38 1.37435 117.418C0.535764 116.455 0.077647 115.018 0 113.108L2.95835 112.526C3.00494 113.722 3.19129 114.638 3.51741 115.275C3.85905 115.896 4.38705 116.206 5.1014 116.206C5.6294 116.206 6.01764 116.051 6.26611 115.74C6.53011 115.414 6.66211 114.98 6.66211 114.436C6.66211 113.691 6.49128 113.062 6.14964 112.549C5.82352 112.021 5.30328 111.447 4.58893 110.825L2.21294 108.752C1.48306 108.131 0.931763 107.463 0.559058 106.749C0.201882 106.035 0.0232941 105.18 0.0232941 104.187C0.0232941 102.711 0.450352 101.57 1.30447 100.762C2.17411 99.9393 3.36988 99.5278 4.89176 99.5278C6.52234 99.5278 7.68704 99.9937 8.38587 100.925C9.10022 101.842 9.51175 103.084 9.62045 104.652L6.66211 105.165C6.61552 104.14 6.46799 103.371 6.21952 102.859C5.98658 102.331 5.5207 102.067 4.82187 102.067C4.32493 102.067 3.9367 102.238 3.65717 102.579C3.37764 102.905 3.23788 103.325 3.23788 103.837C3.23788 104.443 3.35435 104.955 3.58729 105.375C3.83576 105.778 4.23176 106.213 4.77529 106.679L7.12799 108.752C8.01316 109.513 8.70422 110.328 9.20116 111.198C9.6981 112.068 9.94657 113.077 9.94657 114.226C9.94657 115.127 9.74469 115.927 9.34092 116.626C8.95269 117.324 8.4014 117.876 7.68705 118.28C6.97269 118.668 6.14964 118.862 5.21787 118.862Z" fill="#FD5734"/>
<path fill-rule="evenodd" clip-rule="evenodd" d="M39.7941 67.5528C39.7941 69.4826 41.3584 71.0469 43.2882 71.0469C45.2179 71.0469 46.7823 69.4826 46.7823 67.5528C46.7823 65.6231 45.2179 64.0587 43.2882 64.0587C41.3584 64.0587 39.7941 65.6231 39.7941 67.5528ZM43.2882 80.9469C41.3584 80.9469 39.7941 79.3826 39.7941 77.4528C39.7941 75.5231 41.3584 73.9587 43.2882 73.9587C45.2179 73.9587 46.7823 75.5231 46.7823 77.4528C46.7823 79.3826 45.2179 80.9469 43.2882 80.9469ZM53.7705 80.9469C51.8408 80.9469 50.2764 79.3826 50.2764 77.4528C50.2764 75.5231 51.8408 73.9587 53.7705 73.9587C55.7002 73.9587 57.2646 75.5231 57.2646 77.4528C57.2646 79.3826 55.7002 80.9469 53.7705 80.9469ZM53.7705 71.0469C51.8408 71.0469 50.2764 69.4826 50.2764 67.5528C50.2764 65.6231 51.8408 64.0587 53.7705 64.0587C55.7002 64.0587 57.2646 65.6231 57.2646 67.5528C57.2646 69.4826 55.7002 71.0469 53.7705 71.0469Z" fill="#720046"/>
<path fill-rule="evenodd" clip-rule="evenodd" d="M48.5294 50.6646C48.5294 52.5943 50.0937 54.1587 52.0235 54.1587C53.9532 54.1587 55.5176 52.5943 55.5176 50.6646C55.5176 48.7348 53.9532 47.1705 52.0235 47.1705C50.0937 47.1705 48.5294 48.7348 48.5294 50.6646ZM36.2999 59.3999C36.2999 61.3296 37.8643 62.894 39.794 62.894C41.7238 62.894 43.2881 61.3296 43.2881 59.3999C43.2881 57.4701 41.7238 55.9057 39.794 55.9057C37.8643 55.9057 36.2999 57.4701 36.2999 59.3999ZM53.7705 59.3999C53.7705 61.3296 55.3348 62.894 57.2646 62.894C59.1943 62.894 60.7587 61.3296 60.7587 59.3999C60.7587 57.4701 59.1943 55.9057 57.2646 55.9057C55.3348 55.9057 53.7705 57.4701 53.7705 59.3999ZM48.5294 62.894C46.5996 62.894 45.0353 61.3296 45.0353 59.3999C45.0353 57.4701 46.5996 55.9057 48.5294 55.9057C50.4591 55.9057 52.0235 57.4701 52.0235 59.3999C52.0235 61.3296 50.4591 62.894 48.5294 62.894ZM43.2881 54.1587C41.3584 54.1587 39.794 52.5943 39.794 50.6646C39.794 48.7348 41.3584 47.1705 43.2881 47.1705C45.2179 47.1705 46.7823 48.7348 46.7823 50.6646C46.7823 52.5943 45.2179 54.1587 43.2881 54.1587Z" fill="#820043"/>
<path fill-rule="evenodd" clip-rule="evenodd" d="M45.0353 40.7646C45.0353 42.6944 46.5996 44.2587 48.5294 44.2587C50.4591 44.2587 52.0235 42.6944 52.0235 40.7646C52.0235 38.8349 50.4591 37.2705 48.5294 37.2705C46.5996 37.2705 45.0353 38.8349 45.0353 40.7646ZM36.2999 41.9293C36.2999 43.8591 37.8643 45.4234 39.7941 45.4234C41.7238 45.4234 43.2882 43.8591 43.2882 41.9293C43.2882 39.9996 41.7238 38.4352 39.7941 38.4352C37.8643 38.4352 36.2999 39.9996 36.2999 41.9293ZM57.2646 44.8411C55.3349 44.8411 53.7705 43.2767 53.7705 41.347C53.7705 39.4172 55.3349 37.8529 57.2646 37.8529C59.1943 37.8529 60.7587 39.4172 60.7587 41.347C60.7587 43.2767 59.1943 44.8411 57.2646 44.8411ZM57.2646 50.6646C57.2646 52.5943 58.829 54.1587 60.7587 54.1587C62.6885 54.1587 64.2528 52.5943 64.2528 50.6646C64.2528 48.7349 62.6885 47.1705 60.7587 47.1705C58.829 47.1705 57.2646 48.7349 57.2646 50.6646ZM34.5529 55.9058C32.6232 55.9058 31.0588 54.3414 31.0588 52.4117C31.0588 50.4819 32.6232 48.9175 34.5529 48.9175C36.4827 48.9175 38.0471 50.4819 38.0471 52.4117C38.0471 54.3414 36.4827 55.9058 34.5529 55.9058Z" fill="#900D3F"/>
<path fill-rule="evenodd" clip-rule="evenodd" d="M50.2765 23.2941C50.2765 25.2238 51.8408 26.7882 53.7706 26.7882C55.7003 26.7882 57.2647 25.2238 57.2647 23.2941C57.2647 21.3644 55.7003 19.8 53.7706 19.8C51.8408 19.8 50.2765 21.3644 50.2765 23.2941ZM52.0236 35.5235C50.0938 35.5235 48.5295 33.9591 48.5295 32.0294C48.5295 30.0996 50.0938 28.5353 52.0236 28.5353C53.9533 28.5353 55.5177 30.0996 55.5177 32.0294C55.5177 33.9591 53.9533 35.5235 52.0236 35.5235ZM66 46.0058C64.0703 46.0058 62.5059 44.4415 62.5059 42.5117C62.5059 40.582 64.0703 39.0176 66 39.0176C67.9297 39.0176 69.4941 40.582 69.4941 42.5117C69.4941 44.4415 67.9297 46.0058 66 46.0058ZM43.2882 35.5235C41.3585 35.5235 39.7941 33.9591 39.7941 32.0294C39.7941 30.0996 41.3585 28.5353 43.2882 28.5353C45.218 28.5353 46.7824 30.0996 46.7824 32.0294C46.7824 33.9591 45.218 35.5235 43.2882 35.5235ZM57.2647 32.6117C57.2647 34.5415 58.829 36.1058 60.7588 36.1058C62.6885 36.1058 64.2529 34.5415 64.2529 32.6117C64.2529 30.682 62.6885 29.1176 60.7588 29.1176C58.829 29.1176 57.2647 30.682 57.2647 32.6117ZM29.8941 47.7529C27.9644 47.7529 26.4 46.1885 26.4 44.2588C26.4 42.329 27.9644 40.7647 29.8941 40.7647C31.8239 40.7647 33.3882 42.329 33.3882 44.2588C33.3882 46.1885 31.8239 47.7529 29.8941 47.7529Z" fill="#C70039"/>
<path fill-rule="evenodd" clip-rule="evenodd" d="M55.5176 16.8882C53.5879 16.8882 52.0235 15.3238 52.0235 13.3941C52.0235 11.4643 53.5879 9.89996 55.5176 9.89996C57.4473 9.89996 59.0117 11.4643 59.0117 13.3941C59.0117 15.3238 57.4473 16.8882 55.5176 16.8882ZM67.7469 35.5234C67.7469 37.4532 69.3113 39.0176 71.241 39.0176C73.1708 39.0176 74.7351 37.4532 74.7351 35.5234C74.7351 33.5937 73.1708 32.0293 71.241 32.0293C69.3113 32.0293 67.7469 33.5937 67.7469 35.5234ZM19.4117 37.2705C19.4117 39.2002 20.9761 40.7646 22.9059 40.7646C24.8356 40.7646 26.4 39.2002 26.4 37.2705C26.4 35.3408 24.8356 33.7764 22.9059 33.7764C20.9761 33.7764 19.4117 35.3408 19.4117 37.2705ZM38.0471 22.1294C38.0471 24.0591 39.6114 25.6235 41.5412 25.6235C43.4709 25.6235 45.0353 24.0591 45.0353 22.1294C45.0353 20.1996 43.4709 18.6352 41.5412 18.6352C39.6114 18.6352 38.0471 20.1996 38.0471 22.1294ZM64.2528 28.5352C62.3231 28.5352 60.7587 26.9709 60.7587 25.0411C60.7587 23.1114 62.3231 21.547 64.2528 21.547C66.1826 21.547 67.7469 23.1114 67.7469 25.0411C67.7469 26.9709 66.1826 28.5352 64.2528 28.5352Z" fill="#FF0025"/>
<path fill-rule="evenodd" clip-rule="evenodd" d="M57.2646 6.98822C55.3349 6.98822 53.7705 5.42386 53.7705 3.49411C53.7705 1.56437 55.3349 0 57.2646 0C59.1944 0 60.7588 1.56437 60.7588 3.49411C60.7588 5.42386 59.1944 6.98822 57.2646 6.98822ZM78.2293 32.0293C76.2995 32.0293 74.7352 30.465 74.7352 28.5352C74.7352 26.6055 76.2995 25.0411 78.2293 25.0411C80.159 25.0411 81.7234 26.6055 81.7234 28.5352C81.7234 30.465 80.159 32.0293 78.2293 32.0293ZM36.8823 12.2294C36.8823 14.1591 38.4467 15.7235 40.3764 15.7235C42.3062 15.7235 43.8705 14.1591 43.8705 12.2294C43.8705 10.2996 42.3062 8.73528 40.3764 8.73528C38.4467 8.73528 36.8823 10.2996 36.8823 12.2294ZM67.747 19.8C65.8172 19.8 64.2528 18.2356 64.2528 16.3059C64.2528 14.3761 65.8172 12.8117 67.747 12.8117C69.6767 12.8117 71.2411 14.3761 71.2411 16.3059C71.2411 18.2356 69.6767 19.8 67.747 19.8Z" fill="#FD5734"/>
<path d="M90.9641 139.441V129.483H91.9108L94.7384 136.097V129.483H95.894V139.441H95.0089L92.1443 132.642V139.441H90.9641Z" fill="#FD5734"/>
<path d="M82.9993 139.552C80.9708 139.552 80.27 138.298 80.27 136.318V132.544C80.27 130.577 80.9831 129.397 82.9993 129.397C85.0032 129.397 85.7163 130.589 85.7163 132.544V136.331C85.7163 138.285 85.0032 139.552 82.9993 139.552ZM82.9993 138.457C84.1058 138.457 84.3148 137.732 84.3148 136.626V132.261C84.3148 131.155 84.1058 130.479 82.9993 130.479C81.8805 130.479 81.6715 131.155 81.6715 132.261V136.626C81.6715 137.732 81.8805 138.457 82.9993 138.457Z" fill="#FD5734"/>
<path d="M73.5963 139.441V129.483H74.961V139.441H73.5963Z" fill="#FD5734"/>
<path d="M65.6558 139.441V130.515H63.9716V129.483H68.6802V130.515H67.0451V139.441H65.6558Z" fill="#FD5734"/>
<path d="M54.4836 139.441L56.5982 129.483H57.9383L60.0652 139.441H58.7497L58.2948 136.933H56.2663L55.7868 139.441H54.4836ZM56.4507 135.937H58.1104L57.2744 131.45L56.4507 135.937Z" fill="#FD5734"/>
<path d="M44.6589 139.441V129.483H46.8227C49.0356 129.483 49.7733 130.503 49.7733 132.519V136.183C49.7733 138.298 49.0233 139.441 46.9333 139.441H44.6589ZM46.0482 138.445H46.835C48.3472 138.445 48.3718 137.535 48.3718 135.925V132.691C48.3718 131.155 48.2242 130.515 46.7981 130.515H46.0482V138.445Z" fill="#FD5734"/>
<path d="M34.2815 139.441V129.483H35.2281L38.0558 136.097V129.483H39.2114V139.441H38.3263L35.4617 132.642V139.441H34.2815Z" fill="#FD5734"/>
<path d="M26.2933 139.552C24.1173 139.552 23.6378 138.175 23.6378 136.085V129.483H24.9656V136.146C24.9656 137.437 25.1254 138.457 26.2933 138.457C27.4613 138.457 27.6211 137.437 27.6211 136.146V129.483H28.9366V136.085C28.9366 138.175 28.4571 139.552 26.2933 139.552Z" fill="#FD5734"/>
<path d="M15.7591 139.552C13.7305 139.552 13.0298 138.298 13.0298 136.318V132.544C13.0298 130.577 13.7428 129.397 15.7591 129.397C17.763 129.397 18.4761 130.589 18.4761 132.544V136.331C18.4761 138.285 17.763 139.552 15.7591 139.552ZM15.7591 138.457C16.8655 138.457 17.0745 137.732 17.0745 136.626V132.261C17.0745 131.155 16.8655 130.479 15.7591 130.479C14.6403 130.479 14.4313 131.155 14.4313 132.261V136.626C14.4313 137.732 14.6403 138.457 15.7591 138.457Z" fill="#FD5734"/>
<path d="M4.52942 139.441V129.483H8.37747V130.479H5.91865V133.798H7.82424V134.781H5.91865V139.441H4.52942Z" fill="#FD5734"/>
</svg>
